<?xml version="1.0" encoding="UTF-8"?>
<svg id="Layer_2" data-name="Layer 2" xmlns="http://www.w3.org/2000/svg" viewBox="0 0 353.45 490.69">
  <defs>
    <style>
      .cls-1 {
        fill: #111;
      }

      .cls-2 {
        fill: #d8b355;
      }

      .cls-3 {
        fill: #fcbd13;
      }
    </style>
  </defs>
  <g id="Layer_1-2" data-name="Layer 1">
    <g>
      <g>
        <polygon class="cls-3" points="238.96 349.63 238.96 349.42 238.96 349.42 238.96 349.63"/>
        <polyline class="cls-3" points="241.87 124.56 241.87 124.66 241.87 124.66"/>
        <line class="cls-3" x1="247.62" y1="127.22" x2="247.62" y2="127.08"/>
        <polyline class="cls-3" points="231.69 120.04 231.68 120.14 231.68 120.14"/>
        <path class="cls-3" d="M237.03,122.52l.1,.04c-.03-.06-.06-.12-.09-.16"/>
        <polyline class="cls-3" points="252.23 129.15 252.23 129.27 252.23 129.27"/>
        <line class="cls-3" x1="258.83" y1="132.2" x2="258.83" y2="132.09"/>
        <polyline class="cls-3" points="263.25 134.06 263.25 134.16 263.25 134.16"/>
        <line class="cls-3" x1="269.79" y1="137.06" x2="269.78" y2="136.92"/>
        <path class="cls-2" d="M98.4,166.36s-.03,.04-.05,.06l.08-.04"/>
        <line class="cls-2" x1="104.52" y1="163.03" x2="104.52" y2="162.98"/>
        <path class="cls-2" d="M84.8,173.82h0s-.02,.04-.03,.06l.03-.02h0"/>
        <line class="cls-2" x1="91.1" y1="170.4" x2="91.1" y2="170.36"/>
        <g>
          <g>
            <polygon class="cls-3" points="273.79 125.91 274.79 27.85 272.85 26.8 272.85 26.8 272.91 125.43 273.79 125.91"/>
            <polygon class="cls-3" points="266.22 121.75 267.06 122.21 267.06 122.21 266.55 23.4 264.33 22.2 264.33 22.2 266.22 121.75 266.22 121.75"/>
            <polygon class="cls-3" points="227.64 100.55 227.64 100.55 227.84 2.49 223.21 0 226.33 99.83 226.33 99.83 227.64 100.55"/>
            <path class="cls-3" d="M256.79,116.57h0s.91,.49,.91,.49l.31-98.27h0s-3.14-1.7-3.14-1.7c.02,.18,.04,.32,.04,.37l1.88,99.11Z"/>
            <polygon class="cls-2" points="202.47 5.73 195.37 9 194.98 102.99 196.46 102.31 196.47 102.31 202.47 5.74 202.47 5.73"/>
            <path class="cls-3" d="M238.12,106.31h0s1.32,.72,1.32,.72l-.24-98.4-5.18-2.79c.07,.27,.12,.54,.12,.66l3.98,99.81Z"/>
            <path class="cls-3" d="M247.38,111.4h0s1.28,.7,1.28,.7l-.04-98.38-3.12-1.68c0,.21,0,.4,0,.47l1.87,98.9Z"/>
            <path class="cls-2" d="M214.95,0l-5.75,2.64h0s-.41,94.11-.41,94.11l1.76-.79h0S214.99,.16,214.99,.16c0-.02-.02-.09-.04-.16Z"/>
            <path class="cls-2" d="M118.44,62.11l.7-11.02,.22-3.57,.19-2.98c0-.24,.06-.54,.18-.77l-7.27,3.34h0s-.02,3.75-.02,3.75l-.02,5.22v1.47s-.05,10.24-.05,10.24h0s-.05,11.16-.05,11.16l-.25,61.43h0s1.41-.64,1.41-.64h0s4.03-63.35,4.03-63.35l.91-14.27Z"/>
            <path class="cls-2" d="M174.81,18.45l-7.08,3.25-.29,93.71,1.29-.58,6.1-96.15s-.01-.13-.02-.22Z"/>
            <path class="cls-2" d="M104.46,71.03l.6-9.47h0s.18-2.74,.18-2.74l.32-5.08,.13-2.01,.05-.74c0-.14,.02-.27,.03-.41,.02-.32,.02-.36,.02-.4h0l-.83,.36-.67,.31-2.07,.95-.66,.3-1.35,.62-.43,.2-1.56,.72-.03,17.92-.02,9.73v6.78s-.12,58.62-.12,58.62l1.64-.74h0s4.13-64.89,4.13-64.89l.64-10.04Z"/>
            <path class="cls-2" d="M132.52,51.44l.19-3.02,.07-1.06,.59-9.29c0-.2,.08-.46,.18-.66l-2.62,1.21-4.66,2.14-.03,7.2v3.34s-.09,17.5-.09,17.5l-.27,65.35,1.4-.64h0s4.95-77.82,4.95-77.82l.27-4.25Z"/>
            <path class="cls-2" d="M161.07,24.76l-7.15,3.29h0s-.39,93.63-.39,93.63h0s1.37-.62,1.37-.62h.02s6.09-95.92,6.09-95.92c0-.09,.03-.24,.06-.37Z"/>
            <path class="cls-2" d="M146.05,49.6l1.14-18c0-.14,.05-.35,.1-.51l-7.2,3.31h0s-.06,14.61-.06,14.61v2.52s-.32,76.38-.32,76.38h0s1.38-.63,1.38-.63h0s4.83-75.77,4.83-75.77l.12-1.91Z"/>
            <path class="cls-2" d="M188.66,12.08l-7.11,3.27h0s-.38,93.87-.38,93.87h0s1.39-.63,1.39-.63h.01s6.08-96.38,6.08-96.38c0-.02,0-.07,0-.12Z"/>
            <polygon class="cls-2" points="112.46 47.11 112.46 47.11 112.46 47.04 112.46 47.04 112.46 47.11 112.46 47.11"/>
            <polyline class="cls-2" points="126.27 40.76 126.28 40.76 126.28 40.59"/>
            <line class="cls-2" x1="140.1" y1="34.41" x2="140.1" y2="34.25"/>
            <line class="cls-2" x1="153.92" y1="28.05" x2="153.92" y2="27.9"/>
            <polyline class="cls-2" points="167.73 21.7 167.73 21.7 167.73 21.57"/>
            <polyline class="cls-2" points="195.37 9 195.37 9 195.37 8.89"/>
            <polyline class="cls-2" points="202.47 5.73 202.47 5.73 202.47 5.73"/>
          </g>
          <line class="cls-2" x1="209.19" y1="2.65" x2="209.19" y2="2.48"/>
        </g>
        <path class="cls-2" d="M110.82,159.54s-.02,.04-.03,.05l.05-.03"/>
        <polyline class="cls-2" points="117.12 156.12 117.12 156.12 117.12 156.05"/>
        <path class="cls-2" d="M123.4,152.58s-.07,.1-.1,.15l.15-.08"/>
        <polyline class="cls-2" points="129.61 149.26 129.61 149.26 129.61 149.21"/>
        <path class="cls-2" d="M136.41,145.48c-.07,.04-.14,.09-.2,.14-.02,.02-.04,.04-.06,.06l.08-.04c.07-.05,.14-.1,.2-.14"/>
        <path class="cls-2" d="M136.42,145.5c-.07,.04-.14,.09-.2,.14"/>
        <path class="cls-2" d="M148.56,138.84s-.02,.04-.04,.05l.06-.03"/>
        <path class="cls-2" d="M161.51,131.64c-.16,.09-.31,.21-.42,.35"/>
        <path class="cls-2" d="M174.06,124.81c-.12,.07-.23,.15-.32,.24"/>
        <path class="cls-2" d="M186.17,118.19c-.07,.03-.12,.09-.17,.13,.05-.04,.11-.08,.17-.11"/>
        <path class="cls-2" d="M186.17,118.21c-.07,.03-.12,.07-.17,.11"/>
        <path class="cls-2" d="M199.15,111.06c-.1,.05-.19,.04-.26,.11-.05,.04-.08,.09-.12,.15l.12-.07c.08-.07,.16-.14,.26-.19Z"/>
        <path class="cls-2" d="M199.15,111.06c-.1,.05-.19,.12-.26,.19"/>
        <g>
          <path class="cls-2" d="M185.59,122.98l-6.09,2.52,.33,227.14,3.29,.49,1.93-229.13c0-.44,.21-.81,.54-1.02Z"/>
          <path class="cls-2" d="M173.48,128l-6.36,2.64,.62,220.21,3.15,.47,2.19-222.4c0-.37,.15-.69,.4-.91Z"/>
          <path class="cls-2" d="M198.19,117.76l-6.72,2.78,.43,233.89,3.63,.54,2.32-236.31c0-.33,.13-.67,.33-.91Z"/>
          <path class="cls-2" d="M211.29,112.33l-7.01,2.91,.59,241.12,3.3,.49,3.12-244.07c0-.11,0-.29,0-.45Z"/>
          <path class="cls-2" d="M133.4,345.75l2.51-201.39c0-.39,.17-.75,.44-.97l-6.45,2.67,.19,199.14"/>
          <path class="cls-2" d="M121.1,343.87l2.37-194.49c0-.27,.06-.53,.19-.74l-6.11,2.53,.17,192.25"/>
          <path class="cls-2" d="M160.99,133.18l-6.26,2.59,.23,213.18,2.98,.44,2.75-215.4c0-.32,.11-.6,.3-.81Z"/>
          <path class="cls-2" d="M111.3,153.77l-6.19,2.56,.64,185.32,3.1,.46,2.27-187.65c0-.25,.05-.5,.18-.69Z"/>
          <path class="cls-2" d="M95.47,340.12l3.21-180.38c0-.34,.12-.67,.33-.88l-7.16,2.97h0s.62,177.81,.62,177.81"/>
          <path class="cls-2" d="M82.3,338.13l3.12-173.08c0-.23,.06-.44,.17-.62l-6.99,2.89,.84,170.43"/>
          <path class="cls-2" d="M148.57,138.32l-6.24,2.58,.21,206.2,3.05,.45,2.71-208.42c0-.31,.09-.61,.27-.82Z"/>
          <path class="cls-3" d="M296.66,168.83l-.14-18.07v-1.83s-.18-.07-.18-.07l-1.28-.57-1.1-.49-1.3-.58-.28-.13-.04-.02-.13-.06s0,.04,0,.06c0,.01,0,.03,0,.04v.36s.08,3.12,.08,3.12h0s.17,6.87,.17,6.87v.03l.27,11.38,.03,1.14s0,.02,0,.04l.21,8.81,2.28,144.02,.9-.42,.2-.09,.36-143.55-.07-9.99Z"/>
          <polygon class="cls-3" points="274.57 158.38 274.57 158.38 274.52 146.94 274.51 143.25 274.49 139.15 271.64 137.88 269.79 137.06 269.94 143.33 270.01 146.86 270.52 169.06 273.85 332.98 273.85 332.98 274.75 332.56 274.63 172.54 274.57 158.38"/>
          <path class="cls-3" d="M285.81,167.35l-.02-6.35-.02-2.33h0s-.02-7.6-.02-7.6v-2.04s-.01-1.98-.01-1.98l-.02-2.91-2.22-.99-2.42-1.08-.04,1.1,.09,3.85,.11,4.82,.04,1.59,.28,11.77,.26,11.29,2.76,151.43h0s.84-.39,.84-.39l.43-149.71-.04-10.47Z"/>
          <polygon class="cls-3" points="252.28 143.87 252.23 129.27 247.62 127.22 247.97 144.1 248.02 146.09 252.54 343.02 253.29 342.67 253.29 342.67 252.29 146.33 252.28 143.87"/>
          <path class="cls-3" d="M241.6,144.74l.26-20.07-4.74-2.1c.11,.23,.17,.52,.18,.76l1.65,226.11h0s.98-.46,.98-.46l1.65-203.51v-.71Z"/>
          <polygon class="cls-3" points="226.19 117.7 228.01 354.58 228.98 354.13 228.99 354.13 231.68 120.14 226.19 117.7"/>
          <polygon class="cls-3" points="263.32 146.72 263.3 143.48 263.25 134.16 262.5 133.83 258.83 132.2 259.08 143.6 259.15 146.6 263.28 337.96 264.06 337.6 263.36 158.59 263.32 146.72"/>
        </g>
        <g>
          <path class="cls-3" d="M281.36,27.39l-.58,6.33-.81-6.31c-.46-3.64-3.39-6.47-7.05-6.81l-6.33-.58,6.31-.8c3.64-.46,6.47-3.39,6.81-7.05l.58-6.33,.8,6.31c.46,3.64,3.4,6.47,7.05,6.81l6.33,.58-6.31,.8c-3.64,.46-6.47,3.39-6.81,7.05Z"/>
          <path class="cls-3" d="M284.25,12.22l-1.46,.03,1.4-.43c.95-.29,1.46-1.31,1.14-2.24l-.48-1.39,.84,1.2c.57,.81,1.69,.99,2.48,.39l1.17-.88-.88,1.17c-.6,.79-.42,1.92,.39,2.48l1.2,.84-1.39-.48c-.94-.32-1.95,.2-2.24,1.14l-.43,1.4,.03-1.47c.02-.99-.79-1.8-1.78-1.78Z"/>
          <path class="cls-3" d="M291.91,14.94h-.61s.58-.17,.58-.17c.39-.12,.61-.54,.47-.93l-.2-.57,.35,.5c.23,.34,.7,.41,1.03,.16l.48-.37-.37,.48c-.25,.33-.17,.79,.16,1.03l.5,.35-.57-.2c-.39-.13-.81,.08-.93,.47l-.18,.58v-.61c.02-.41-.31-.74-.72-.74Z"/>
        </g>
        <g>
          <path class="cls-2" d="M71.49,169.73l-.58,6.33-.81-6.31c-.46-3.64-3.39-6.47-7.05-6.81l-6.33-.58,6.31-.8c3.64-.46,6.47-3.39,6.81-7.05l.58-6.33,.8,6.31c.46,3.64,3.4,6.47,7.05,6.81l6.33,.58-6.31,.8c-3.64,.46-6.47,3.39-6.81,7.05Z"/>
          <path class="cls-2" d="M74.38,154.56l-1.46,.03,1.4-.43c.95-.29,1.46-1.31,1.14-2.24l-.48-1.39,.84,1.2c.57,.81,1.69,.99,2.48,.39l1.17-.88-.88,1.17c-.6,.79-.42,1.92,.39,2.48l1.2,.84-1.39-.48c-.94-.32-1.95,.2-2.24,1.14l-.43,1.4,.03-1.47c.02-.99-.79-1.8-1.78-1.78Z"/>
          <path class="cls-2" d="M82.04,157.28h-.61s.58-.17,.58-.17c.39-.12,.61-.54,.47-.93l-.2-.57,.35,.5c.23,.34,.7,.41,1.03,.16l.48-.37-.37,.48c-.25,.33-.17,.79,.16,1.03l.5,.35-.57-.2c-.39-.13-.81,.08-.93,.47l-.18,.58v-.61c.02-.41-.31-.74-.72-.74Z"/>
        </g>
      </g>
      <g>
        <path class="cls-2" d="M0,455.04c1.35-.43,2.52-1.07,3.53-1.93,1.01-.86,1.51-1.91,1.51-3.14v-49.37c0-1.23-.5-2.28-1.51-3.14-1.01-.86-2.19-1.5-3.53-1.93v-.89H19.28v.89c-1.35,.43-2.52,1.07-3.53,1.93-1.01,.86-1.51,1.91-1.51,3.14v49.37c0,1.24,.5,2.28,1.51,3.14,1.01,.86,2.19,1.5,3.53,1.93v.89H0v-.89Z"/>
        <path class="cls-2" d="M30.66,394.73h14.69l33.97,43.33v-37.45c0-.59-.23-1.15-.69-1.69-.46-.54-1.01-1.02-1.65-1.45-.64-.43-1.35-.82-2.11-1.17-.77-.35-1.48-.6-2.16-.76v-.89h18.27v.89c-.61,.16-1.32,.42-2.11,.76-.8,.35-1.53,.74-2.2,1.17-.67,.43-1.24,.91-1.7,1.45-.46,.54-.69,1.1-.69,1.69v57.74l-43.42-54.76v46.39c0,.59,.23,1.16,.69,1.69,.46,.54,1.02,1.02,1.7,1.45,.67,.43,1.41,.82,2.2,1.17,.79,.35,1.5,.6,2.11,.76v.89H29.29v-.89c.67-.16,1.39-.41,2.16-.76,.76-.35,1.48-.74,2.16-1.17,.67-.43,1.24-.91,1.7-1.45,.46-.54,.69-1.1,.69-1.69v-48.16c0-1.23-.22-2.24-.64-3.02-.43-.78-.93-1.38-1.51-1.81-.58-.43-1.16-.75-1.74-.97-.58-.21-1.06-.4-1.42-.56v-.72Z"/>
        <path class="cls-2" d="M100.99,455.01c1.35-.44,2.52-1.11,3.53-2,1.01-.89,1.51-1.97,1.51-3.25v-48.94c0-1.28-.5-2.36-1.51-3.25-1.01-.89-2.19-1.56-3.53-2v-.92h19.28v.92c-1.35,.45-2.52,1.11-3.53,2-1.01,.89-1.51,1.97-1.51,3.25v50.69h22.68c.67,0,1.44-.28,2.3-.83,.86-.55,1.68-1.22,2.48-2,.79-.78,1.51-1.6,2.16-2.46,.64-.86,1.06-1.57,1.24-2.13h1.19l-2.57,11.84h-43.7v-.92Z"/>
        <path class="cls-2" d="M149.73,454.96l.18-.08c.61-.16,1.35-.4,2.2-.72,.86-.32,1.71-.7,2.57-1.13,.86-.43,1.64-.89,2.34-1.37,.7-.48,1.15-.97,1.33-1.45l5.88-13.05c-2.14-.59-3.96-1.44-5.46-2.54-1.5-1.1-2.25-2.75-2.25-4.95,0-.86,.15-1.82,.46-2.9h1.19c.18,.75,.55,1.42,1.1,2.01,.55,.59,1.22,1.09,2.02,1.49,.79,.4,1.67,.74,2.62,1.01,.95,.27,1.85,.48,2.71,.64l17.63-39.38,25.06,58.14c.18,.54,.55,1.05,1.1,1.53,.55,.48,1.15,.91,1.79,1.29,.64,.38,1.3,.68,1.97,.93,.67,.24,1.25,.42,1.74,.52l.37,.97h-19.28l-.28-.89c.86-.32,1.57-.76,2.16-1.33,.58-.56,.87-1.25,.87-2.05,0-2.58-.49-4.67-1.47-6.28-.98-1.61-2.28-2.89-3.9-3.83-1.62-.94-3.47-1.61-5.55-2.01-2.08-.4-4.24-.68-6.47-.85-2.23-.16-4.44-.25-6.61-.28-2.17-.03-4.18-.15-6.01-.36l-5.6,12.8c-.25,.48-.18,.95,.18,1.41,.37,.46,.84,.86,1.42,1.21,.58,.35,1.18,.66,1.79,.93,.61,.27,1.1,.48,1.47,.64l-.28,.89h-19.37l.37-.97Zm43.24-20.05l-10.65-24.96-10.19,22.55c1.71,.11,3.46,.18,5.23,.2,1.77,.03,3.56,.11,5.37,.24,1.8,.13,3.56,.34,5.28,.6,1.71,.27,3.37,.72,4.96,1.37Z"/>
        <path class="cls-2" d="M223.73,394.73h14.69l33.97,43.33v-37.45c0-.59-.23-1.15-.69-1.69-.46-.54-1.01-1.02-1.65-1.45-.64-.43-1.35-.82-2.11-1.17-.77-.35-1.48-.6-2.16-.76v-.89h18.27v.89c-.61,.16-1.32,.42-2.11,.76-.8,.35-1.53,.74-2.2,1.17-.67,.43-1.24,.91-1.7,1.45-.46,.54-.69,1.1-.69,1.69v57.74l-43.42-54.76v46.39c0,.59,.23,1.16,.69,1.69,.46,.54,1.02,1.02,1.7,1.45,.67,.43,1.41,.82,2.2,1.17,.79,.35,1.5,.6,2.11,.76v.89h-18.27v-.89c.67-.16,1.39-.41,2.16-.76,.76-.35,1.48-.74,2.16-1.17,.67-.43,1.24-.91,1.7-1.45,.46-.54,.69-1.1,.69-1.69v-48.16c0-1.23-.22-2.24-.64-3.02-.43-.78-.93-1.38-1.51-1.81-.58-.43-1.16-.75-1.74-.97-.58-.21-1.06-.4-1.42-.56v-.72Z"/>
        <path class="cls-2" d="M294.05,455.01c1.35-.39,2.52-1.04,3.53-1.96,1.01-.92,1.51-2.01,1.51-3.29v-48.94c0-1.28-.5-2.38-1.51-3.29-1.01-.92-2.19-1.57-3.53-1.96v-.92h33.69c4.59,0,8.52,.95,11.8,2.83,3.27,1.89,5.94,4.31,7.99,7.25,2.05,2.95,3.55,6.21,4.5,9.8,.95,3.59,1.42,7.07,1.42,10.46s-.48,6.82-1.42,10.46c-.95,3.64-2.45,6.98-4.5,10.01-2.05,3.03-4.71,5.53-7.99,7.5-3.27,1.97-7.21,2.96-11.8,2.96h-33.69v-.92Zm14.14-3.75h15.88c3.61,0,6.62-.86,9.04-2.58,2.42-1.72,4.39-3.89,5.92-6.5,1.53-2.61,2.62-5.43,3.26-8.46,.64-3.03,.96-5.85,.96-8.46s-.32-5.43-.96-8.46c-.64-3.03-1.73-5.85-3.26-8.46-1.53-2.61-3.5-4.79-5.92-6.55-2.42-1.75-5.43-2.63-9.04-2.63h-15.88v52.11Z"/>
      </g>
      <g>
        <g>
          <path class="cls-1" d="M58.33,474.34l-6.21,16.1h3.04l1.17-3.15h7.08l1.22,3.15h3.01l-6.25-16.1h-3.06Zm-1.17,10.55l2.71-7.57,2.69,7.57h-5.4Z"/>
          <path class="cls-1" d="M78.64,481.38l-2.07-.76c-1.75-.62-1.91-1.45-1.91-2,0-1.29,1.08-1.91,2.39-1.91,1.17,0,2.3,.44,2.85,2.09l2.48-1.03c-.74-2.3-2.64-3.68-5.33-3.68-2.92,0-5.33,1.75-5.33,4.58,0,1.33,.55,3.43,3.96,4.53l2.07,.71c1.4,.51,2.12,1.22,2.12,2.14,0,1.29-1.22,2.05-2.9,2.05s-2.99-.99-3.33-2.37l-2.67,.6c.44,2.58,2.94,4.37,6.07,4.37s5.75-1.66,5.75-4.76c0-1.56-1.01-3.56-4.14-4.55Z"/>
          <path class="cls-1" d="M95.31,474.34h-6.76v16.1h2.94v-5.89h3.82c3.22,0,5.04-2.28,5.04-5.04s-1.82-5.17-5.04-5.17Zm-.46,7.89h-3.36v-5.52h3.36c1.56,0,2.48,1.13,2.48,2.78s-.92,2.74-2.48,2.74Z"/>
          <rect class="cls-1" x="105.92" y="474.34" width="2.94" height="16.1"/>
          <path class="cls-1" d="M126.94,488.14c-1.72,0-2.55-2.05-2.85-3.77,2.28-.58,3.61-2.48,3.61-4.85,0-2.76-1.82-5.17-5.01-5.17h-6.94v16.1h2.94v-5.91h2.71c.18,1.84,1.33,6.16,5.13,6.16,1.38,0,2.3-.44,3.22-1.24l-1.03-2.02c-.44,.44-1.06,.71-1.77,.71Zm-4.71-5.96h-3.54v-5.4h3.54c1.49,0,2.48,1.15,2.48,2.71s-.94,2.69-2.48,2.69Z"/>
          <polygon class="cls-1" points="134.5 490.44 144.97 490.44 144.97 488.09 137.45 488.09 137.45 483.72 144 483.72 144 481.38 137.45 481.38 137.45 476.71 144.97 476.71 144.97 474.34 134.5 474.34 134.5 490.44"/>
          <path class="cls-1" d="M172.04,488.26c-.46-.02-.99-.16-1.45-.69l-.94-1.04,3.04-4.14v-.46h-2.67l-1.98,2.76-2.53-2.85c1.66-.85,3.15-2.34,3.15-4.07,0-1.96-1.63-3.68-4.3-3.68-2,0-4.3,.97-4.3,3.73,0,1.29,.71,2.53,1.63,3.43-1.95,.92-4.05,2.37-4.05,4.9,0,2.9,2.62,4.55,5.75,4.55,1.93,0,3.77-.69,4.76-2l.39,.44c.92,.92,1.89,1.56,3.36,1.56,1.31,0,2.23-.53,2.97-1.29l-.97-1.91c-.53,.58-1.33,.76-1.86,.76Zm-7.63-11.98c1.08,0,1.61,.85,1.61,1.59,0,.8-.62,1.68-2,2.41-.76-.76-1.24-1.56-1.24-2.32,0-1.01,.74-1.68,1.63-1.68Zm-.97,12.1c-1.66,0-2.97-.97-2.97-2.37s1.47-2.51,2.78-2.94l3.27,3.73c-.83,1.01-1.79,1.59-3.08,1.59Z"/>
          <polygon class="cls-1" points="187.79 490.44 198.26 490.44 198.26 488.09 190.74 488.09 190.74 483.72 197.29 483.72 197.29 481.38 190.74 481.38 190.74 476.71 198.26 476.71 198.26 474.34 187.79 474.34 187.79 490.44"/>
          <polygon class="cls-1" points="214.4 485.13 206.45 474.34 204.22 474.34 204.22 490.44 207.16 490.44 207.16 479.59 215.14 490.44 217.35 490.44 217.35 474.34 214.4 474.34 214.4 485.13"/>
          <path class="cls-1" d="M230.9,484.39h4.3v2.81c-.99,.55-2.16,.83-3.38,.83-3.59,0-5.66-2.58-5.66-5.59s2.02-5.7,5.63-5.7c1.49,0,2.85,.41,4.44,1.5l1.33-2.21c-1.72-1.29-3.47-1.93-5.84-1.93-4.97,0-8.58,3.77-8.58,8.32s3.66,8.28,8.62,8.28c1.54,0,3.93-.32,6.14-2.35v-6.3h-7.01v2.35Z"/>
          <path class="cls-1" d="M247.94,474.34l-6.21,16.1h3.04l1.17-3.15h7.08l1.22,3.15h3.01l-6.25-16.1h-3.06Zm-1.17,10.55l2.71-7.57,2.69,7.57h-5.4Z"/>
          <path class="cls-1" d="M268.36,484.39h4.3v2.81c-.99,.55-2.16,.83-3.38,.83-3.59,0-5.66-2.58-5.66-5.59s2.02-5.7,5.63-5.7c1.49,0,2.85,.41,4.44,1.5l1.33-2.21c-1.72-1.29-3.47-1.93-5.84-1.93-4.97,0-8.58,3.77-8.58,8.32s3.66,8.28,8.62,8.28c1.54,0,3.93-.32,6.14-2.35v-6.3h-7.01v2.35Z"/>
          <polygon class="cls-1" points="291.87 476.71 291.87 474.34 281.41 474.34 281.41 490.44 291.87 490.44 291.87 488.09 284.35 488.09 284.35 483.72 290.9 483.72 290.9 481.38 284.35 481.38 284.35 476.71 291.87 476.71"/>
        </g>
        <rect class="cls-2" x="300.93" y="481.18" width="40" height="2"/>
        <rect class="cls-2" x="4.52" y="481.39" width="40" height="2"/>
      </g>
    </g>
  </g>
</svg>