<?xml version="1.0" encoding="UTF-8"?>
<svg id="Layer_2" data-name="Layer 2" xmlns="http://www.w3.org/2000/svg" viewBox="0 0 55.4 71.84">
  <defs>
    <style>
      .cls-1 {
        fill: #d6ad63;
      }

      .cls-2 {
        fill: #fabc18;
      }
    </style>
  </defs>
  <g id="Layer_1-2" data-name="Layer 1">
    <g>
      <g>
        <polygon class="cls-2" points="37.45 54.8 37.45 54.77 37.45 54.77 37.45 54.8"/>
        <polyline class="cls-2" points="37.91 19.52 37.91 19.54 37.91 19.54"/>
        <line class="cls-2" x1="38.81" y1="19.94" x2="38.81" y2="19.92"/>
        <polyline class="cls-2" points="36.31 18.81 36.31 18.83 36.31 18.83"/>
        <path class="cls-2" d="M37.15,19.2h.02s0-.01-.01-.02"/>
        <polyline class="cls-2" points="39.53 20.24 39.53 20.26 39.53 20.26"/>
        <line class="cls-2" x1="40.57" y1="20.72" x2="40.57" y2="20.7"/>
        <polyline class="cls-2" points="41.26 21.01 41.26 21.03 41.26 21.03"/>
        <line class="cls-2" x1="42.28" y1="21.48" x2="42.28" y2="21.46"/>
        <polyline class="cls-1" points="15.42 26.07 15.41 26.08 15.43 26.08"/>
        <line class="cls-1" x1="16.38" y1="25.55" x2="16.38" y2="25.54"/>
        <polyline class="cls-1" points="13.29 27.24 13.29 27.24 13.29 27.25 13.29 27.25 13.29 27.25"/>
        <line class="cls-1" x1="14.28" y1="26.71" x2="14.28" y2="26.7"/>
        <g>
          <g>
            <polygon class="cls-2" points="42.91 19.73 43.07 4.36 42.76 4.2 42.76 4.2 42.77 19.66 42.91 19.73"/>
            <polygon class="cls-2" points="41.73 19.08 41.86 19.15 41.86 19.15 41.78 3.67 41.43 3.48 41.43 3.48 41.73 19.08 41.73 19.08"/>
            <polygon class="cls-2" points="35.68 15.76 35.68 15.76 35.71 .39 34.98 0 35.47 15.65 35.47 15.65 35.68 15.76"/>
            <path class="cls-2" d="M40.25,18.27h0s.14,.08,.14,.08l.05-15.4h0s-.49-.27-.49-.27c0,.03,0,.05,0,.06l.29,15.53Z"/>
            <polygon class="cls-1" points="31.73 .9 30.62 1.41 30.56 16.14 30.79 16.04 30.79 16.04 31.73 .9 31.73 .9"/>
            <path class="cls-2" d="M37.32,16.66h0s.21,.11,.21,.11l-.04-15.42-.81-.44s.02,.08,.02,.1l.62,15.64Z"/>
            <path class="cls-2" d="M38.77,17.46h0s.2,.11,.2,.11V2.15s-.5-.26-.5-.26c0,.03,0,.06,0,.07l.29,15.5Z"/>
            <path class="cls-1" d="M33.69,0l-.9,.41h0s-.06,14.75-.06,14.75l.28-.12h0S33.7,.03,33.7,.03c0,0,0-.01,0-.03Z"/>
            <path class="cls-1" d="M18.56,9.74l.11-1.73,.04-.56,.03-.47s0-.08,.03-.12l-1.14,.52h0s0,.59,0,.59v.82s0,.23,0,.23v1.6s0,0,0,0v1.75s-.05,9.63-.05,9.63h0s.22-.1,.22-.1h0s.63-9.93,.63-9.93l.14-2.24Z"/>
            <path class="cls-1" d="M27.4,2.89l-1.11,.51-.05,14.69,.2-.09,.96-15.07s0-.02,0-.03Z"/>
            <path class="cls-1" d="M16.37,11.13l.09-1.48h0s.03-.43,.03-.43l.05-.8,.02-.32v-.12s.01-.04,.01-.06c0-.05,0-.06,0-.06h0l-.13,.06-.1,.05-.32,.15-.1,.05-.21,.1-.07,.03-.24,.11v2.81s0,1.52,0,1.52v1.06s-.02,9.19-.02,9.19l.26-.12h0s.65-10.17,.65-10.17l.1-1.57Z"/>
            <path class="cls-1" d="M20.77,8.06l.03-.47v-.17s.1-1.46,.1-1.46c0-.03,.01-.07,.03-.1l-.41,.19-.73,.34v1.13s0,.52,0,.52v2.74s-.05,10.24-.05,10.24l.22-.1h0s.78-12.2,.78-12.2l.04-.67Z"/>
            <path class="cls-1" d="M25.24,3.88l-1.12,.52h0s-.06,14.67-.06,14.67h0s.21-.1,.21-.1h0s.95-15.03,.95-15.03c0-.01,0-.04,0-.06Z"/>
            <path class="cls-1" d="M22.89,7.77l.18-2.82s0-.05,.02-.08l-1.13,.52h0s0,2.29,0,2.29v.39s-.05,11.97-.05,11.97h0s.22-.1,.22-.1h0s.76-11.88,.76-11.88l.02-.3Z"/>
            <path class="cls-1" d="M29.57,1.89l-1.11,.51h0s-.06,14.71-.06,14.71h0s.22-.1,.22-.1h0s.95-15.11,.95-15.11c0,0,0-.01,0-.02Z"/>
            <polygon class="cls-1" points="17.63 7.38 17.63 7.38 17.63 7.37 17.63 7.37 17.63 7.38 17.63 7.38"/>
            <polyline class="cls-1" points="19.79 6.39 19.79 6.39 19.79 6.36"/>
            <line class="cls-1" x1="21.96" y1="5.39" x2="21.96" y2="5.37"/>
            <line class="cls-1" x1="24.12" y1="4.4" x2="24.12" y2="4.37"/>
            <polyline class="cls-1" points="26.29 3.4 26.29 3.4 26.29 3.38"/>
            <polyline class="cls-1" points="30.62 1.41 30.62 1.41 30.62 1.39"/>
            <polyline class="cls-1" points="31.73 .9 31.73 .9 31.73 .9"/>
          </g>
          <line class="cls-1" x1="32.79" y1=".41" x2="32.79" y2=".39"/>
        </g>
        <polyline class="cls-1" points="17.37 25.01 17.36 25.01 17.37 25.01"/>
        <polyline class="cls-1" points="18.36 24.47 18.36 24.47 18.36 24.46"/>
        <path class="cls-1" d="M19.34,23.91s-.01,.02-.02,.02h.02"/>
        <polyline class="cls-1" points="20.31 23.39 20.31 23.39 20.31 23.39"/>
        <path class="cls-1" d="M21.38,22.8s-.02,.01-.03,.02c0,0,0,0,0,.01h.01s.02-.02,.03-.03"/>
        <path class="cls-1" d="M21.38,22.8s-.02,.01-.03,.02"/>
        <polyline class="cls-1" points="23.28 21.76 23.28 21.77 23.29 21.76"/>
        <path class="cls-1" d="M25.31,20.63s-.05,.03-.07,.06"/>
        <path class="cls-1" d="M27.28,19.56s-.04,.02-.05,.04"/>
        <path class="cls-1" d="M29.18,18.52s-.02,.01-.03,.02c0,0,.02-.01,.03-.02"/>
        <path class="cls-1" d="M29.18,18.53s-.02,.01-.03,.02"/>
        <path class="cls-1" d="M31.21,17.41s-.03,0-.04,.02c0,0-.01,.01-.02,.02h.02s.03-.03,.04-.04Z"/>
        <path class="cls-1" d="M31.21,17.41s-.03,.02-.04,.03"/>
        <g>
          <path class="cls-1" d="M29.09,19.27l-.95,.4,.05,35.6,.52,.08,.3-35.91c0-.07,.03-.13,.08-.16Z"/>
          <path class="cls-1" d="M27.19,20.06l-1,.41,.1,34.51,.49,.07,.34-34.86c0-.06,.02-.11,.06-.14Z"/>
          <path class="cls-1" d="M31.06,18.46l-1.05,.44,.07,36.66,.57,.08,.36-37.04c0-.05,.02-.11,.05-.14Z"/>
          <path class="cls-1" d="M33.12,17.61l-1.1,.46,.09,37.79,.52,.08,.49-38.25s0-.05,0-.07Z"/>
          <path class="cls-1" d="M20.91,54.19l.39-31.56c0-.06,.03-.12,.07-.15l-1.01,.42,.03,31.21"/>
          <path class="cls-1" d="M18.98,53.9l.37-30.48s0-.08,.03-.12l-.96,.4,.03,30.13"/>
          <path class="cls-1" d="M25.23,20.87l-.98,.41,.04,33.41,.47,.07,.43-33.76s.02-.09,.05-.13Z"/>
          <path class="cls-1" d="M17.44,24.1l-.97,.4,.1,29.05,.49,.07,.36-29.41s0-.08,.03-.11Z"/>
          <path class="cls-1" d="M14.96,53.31l.5-28.27c0-.05,.02-.1,.05-.14l-1.12,.47h0s.1,27.87,.1,27.87"/>
          <path class="cls-1" d="M12.9,53l.49-27.13s.01-.07,.03-.1l-1.1,.45,.13,26.71"/>
          <path class="cls-1" d="M23.29,21.68l-.98,.41,.03,32.32,.48,.07,.42-32.67s.01-.1,.04-.13Z"/>
          <polygon class="cls-2" points="46.5 26.46 46.47 23.63 46.47 23.34 46.45 23.33 46.24 23.24 46.07 23.16 45.87 23.07 45.83 23.05 45.82 23.05 45.8 23.04 45.8 23.05 45.8 23.06 45.8 23.11 45.81 23.6 45.81 23.6 45.84 24.68 45.84 24.69 45.88 26.47 45.89 26.65 45.89 26.65 45.92 28.03 46.28 50.61 46.42 50.54 46.45 50.53 46.51 28.03 46.5 26.46"/>
          <polygon class="cls-2" points="43.03 24.82 43.03 24.82 43.03 23.03 43.02 22.45 43.02 21.81 42.57 21.61 42.28 21.48 42.31 22.46 42.32 23.02 42.4 26.5 42.92 52.19 42.92 52.19 43.06 52.12 43.04 27.04 43.03 24.82"/>
          <polygon class="cls-2" points="44.8 26.23 44.79 25.23 44.79 24.87 44.79 24.87 44.79 23.68 44.78 23.36 44.78 23.05 44.78 22.59 44.43 22.44 44.05 22.27 44.05 22.44 44.06 23.04 44.08 23.8 44.09 24.05 44.13 25.89 44.17 27.66 44.6 51.4 44.6 51.4 44.73 51.33 44.8 27.87 44.8 26.23"/>
          <polygon class="cls-2" points="39.54 22.55 39.53 20.26 38.81 19.94 38.86 22.58 38.87 22.9 39.58 53.76 39.7 53.71 39.7 53.71 39.54 22.93 39.54 22.55"/>
          <path class="cls-2" d="M37.87,22.68l.04-3.15-.74-.33s.03,.08,.03,.12l.26,35.44h0s.15-.07,.15-.07l.26-31.9v-.11Z"/>
          <polygon class="cls-2" points="35.45 18.45 35.74 55.57 35.89 55.5 35.89 55.5 36.31 18.83 35.45 18.45"/>
          <polygon class="cls-2" points="41.27 23 41.27 22.49 41.26 21.03 41.14 20.97 40.57 20.72 40.61 22.51 40.62 22.98 41.26 52.97 41.39 52.91 41.28 24.86 41.27 23"/>
        </g>
        <g>
          <path class="cls-2" d="M44.1,4.29l-.09,.99-.13-.99c-.07-.57-.53-1.01-1.1-1.07l-.99-.09,.99-.13c.57-.07,1.01-.53,1.07-1.1l.09-.99,.13,.99c.07,.57,.53,1.01,1.1,1.07l.99,.09-.99,.13c-.57,.07-1.01,.53-1.07,1.1Z"/>
          <path class="cls-2" d="M44.55,1.92h-.23s.22-.06,.22-.06c.15-.05,.23-.2,.18-.35l-.07-.22,.13,.19c.09,.13,.27,.16,.39,.06l.18-.14-.14,.18c-.09,.12-.07,.3,.06,.39l.19,.13-.22-.07c-.15-.05-.31,.03-.35,.18l-.07,.22v-.23c0-.15-.12-.28-.27-.28Z"/>
          <path class="cls-2" d="M45.75,2.34h-.09s.09-.03,.09-.03c.06-.02,.1-.08,.07-.15l-.03-.09,.05,.08c.04,.05,.11,.06,.16,.03l.08-.06-.06,.08c-.04,.05-.03,.12,.03,.16l.08,.05-.09-.03c-.06-.02-.13,.01-.15,.07l-.03,.09v-.09c0-.06-.05-.12-.11-.12Z"/>
        </g>
        <g>
          <path class="cls-1" d="M11.2,26.6l-.09,.99-.13-.99c-.07-.57-.53-1.01-1.1-1.07l-.99-.09,.99-.13c.57-.07,1.01-.53,1.07-1.1l.09-.99,.13,.99c.07,.57,.53,1.01,1.1,1.07l.99,.09-.99,.13c-.57,.07-1.01,.53-1.07,1.1Z"/>
          <path class="cls-1" d="M11.66,24.23h-.23s.22-.06,.22-.06c.15-.05,.23-.2,.18-.35l-.07-.22,.13,.19c.09,.13,.27,.16,.39,.06l.18-.14-.14,.18c-.09,.12-.07,.3,.06,.39l.19,.13-.22-.07c-.15-.05-.31,.03-.35,.18l-.07,.22v-.23c0-.15-.12-.28-.27-.28Z"/>
          <path class="cls-1" d="M12.86,24.65h-.09s.09-.03,.09-.03c.06-.02,.1-.08,.07-.15l-.03-.09,.05,.08c.04,.05,.11,.06,.16,.03l.08-.06-.06,.08c-.04,.05-.03,.12,.03,.16l.08,.05-.09-.03c-.06-.02-.13,.01-.15,.07l-.03,.09v-.09c0-.06-.05-.12-.11-.12Z"/>
        </g>
      </g>
      <g>
        <path class="cls-1" d="M0,71.32c.21-.07,.4-.17,.55-.3,.16-.13,.24-.3,.24-.49v-7.74c0-.19-.08-.36-.24-.49-.16-.13-.34-.24-.55-.3v-.14H3.02v.14c-.21,.07-.4,.17-.55,.3-.16,.13-.24,.3-.24,.49v7.74c0,.19,.08,.36,.24,.49,.16,.13,.34,.24,.55,.3v.14H0v-.14Z"/>
        <path class="cls-1" d="M4.81,61.87h2.3l5.32,6.79v-5.87c0-.09-.04-.18-.11-.27-.07-.08-.16-.16-.26-.23-.1-.07-.21-.13-.33-.18-.12-.05-.23-.09-.34-.12v-.14h2.86v.14c-.1,.03-.21,.07-.33,.12-.12,.05-.24,.12-.35,.18-.11,.07-.19,.14-.27,.23-.07,.08-.11,.17-.11,.27v9.05l-6.81-8.58v7.27c0,.09,.04,.18,.11,.27,.07,.08,.16,.16,.27,.23,.11,.07,.22,.13,.35,.18,.12,.05,.23,.09,.33,.12v.14h-2.86v-.14c.11-.03,.22-.07,.34-.12,.12-.05,.23-.12,.34-.18,.11-.07,.19-.14,.27-.23,.07-.08,.11-.17,.11-.27v-7.55c0-.19-.03-.35-.1-.47-.07-.12-.15-.22-.24-.28-.09-.07-.18-.12-.27-.15-.09-.03-.17-.06-.22-.09v-.11Z"/>
        <path class="cls-1" d="M15.83,71.32c.21-.07,.4-.17,.55-.3,.16-.13,.24-.3,.24-.49v-7.41c0-.19-.08-.36-.24-.49-.16-.13-.34-.24-.55-.3v-.14h3.02v.14c-.21,.07-.4,.17-.55,.3-.16,.13-.24,.3-.24,.49v7.67h3.55c.11,0,.23-.04,.36-.13,.13-.08,.26-.19,.39-.3,.12-.12,.24-.24,.34-.37,.1-.13,.17-.24,.19-.32h.19l-.4,1.79h-6.85v-.14Z"/>
        <path class="cls-1" d="M23.47,71.31h.03c.1-.04,.21-.08,.35-.13,.13-.05,.27-.11,.4-.18,.13-.07,.26-.14,.37-.21,.11-.08,.18-.15,.21-.23l.92-2.04c-.34-.09-.62-.23-.86-.4-.24-.17-.35-.43-.35-.78,0-.13,.02-.29,.07-.45h.19c.03,.12,.09,.22,.17,.32,.09,.09,.19,.17,.32,.23,.12,.06,.26,.12,.41,.16,.15,.04,.29,.08,.42,.1l2.76-6.17,3.93,9.11c.03,.08,.09,.16,.17,.24,.09,.08,.18,.14,.28,.2,.1,.06,.2,.11,.31,.15,.11,.04,.2,.07,.27,.08l.06,.15h-3.02l-.04-.14c.13-.05,.25-.12,.34-.21,.09-.09,.14-.2,.14-.32,0-.4-.08-.73-.23-.98-.15-.25-.36-.45-.61-.6-.25-.15-.54-.25-.87-.32-.33-.06-.66-.11-1.01-.13-.35-.03-.7-.04-1.04-.04-.34,0-.65-.02-.94-.06l-.88,2.01c-.04,.08-.03,.15,.03,.22,.06,.07,.13,.13,.22,.19,.09,.05,.18,.1,.28,.15,.1,.04,.17,.08,.23,.1l-.04,.14h-3.04l.06-.15Zm6.78-3.14l-1.67-3.91-1.6,3.53c.27,.02,.54,.03,.82,.03,.28,0,.56,.02,.84,.04,.28,.02,.56,.05,.83,.09,.27,.04,.53,.11,.78,.21Z"/>
        <path class="cls-1" d="M35.07,61.87h2.3l5.32,6.79v-5.87c0-.09-.04-.18-.11-.27-.07-.08-.16-.16-.26-.23-.1-.07-.21-.13-.33-.18-.12-.05-.23-.09-.34-.12v-.14h2.86v.14c-.1,.03-.21,.07-.33,.12-.12,.05-.24,.12-.35,.18-.11,.07-.19,.14-.27,.23-.07,.08-.11,.17-.11,.27v9.05l-6.81-8.58v7.27c0,.09,.04,.18,.11,.27,.07,.08,.16,.16,.27,.23,.11,.07,.22,.13,.35,.18,.12,.05,.24,.09,.33,.12v.14h-2.86v-.14c.11-.03,.22-.07,.34-.12,.12-.05,.23-.12,.34-.18,.11-.07,.19-.14,.27-.23,.07-.08,.11-.17,.11-.27v-7.55c0-.19-.03-.35-.1-.47-.07-.12-.15-.22-.24-.28-.09-.07-.18-.12-.27-.15-.09-.03-.17-.06-.22-.09v-.11Z"/>
        <path class="cls-1" d="M46.09,71.32c.21-.06,.4-.16,.55-.3,.16-.14,.24-.3,.24-.5v-7.41c0-.19-.08-.36-.24-.5-.16-.14-.34-.24-.55-.3v-.14h5.28c.72,0,1.34,.14,1.85,.43,.51,.29,.93,.65,1.25,1.1,.32,.45,.56,.94,.71,1.48,.15,.54,.22,1.07,.22,1.58s-.07,1.03-.22,1.58c-.15,.55-.38,1.06-.71,1.51-.32,.46-.74,.84-1.25,1.14-.51,.3-1.13,.45-1.85,.45h-5.28v-.14Zm2.22-.57h2.49c.57,0,1.04-.13,1.42-.39,.38-.26,.69-.59,.93-.98,.24-.4,.41-.82,.51-1.28,.1-.46,.15-.89,.15-1.28s-.05-.82-.15-1.28c-.1-.46-.27-.89-.51-1.28-.24-.4-.55-.73-.93-.99-.38-.27-.85-.4-1.42-.4h-2.49v7.89Z"/>
      </g>
    </g>
  </g>
</svg>